<svg id="Capa_1" data-name="Capa 1" xmlns="http://www.w3.org/2000/svg" viewBox="0 0 191.63 94.25"><defs><style>.cls-1,.cls-4{fill:#fff;}.cls-1,.cls-2{stroke:#fff;stroke-miterlimit:10;}.cls-2,.cls-3{fill:#000;}</style></defs><rect class="cls-1" x="0.5" y="0.5" width="72.87" height="72.87" rx="9"/><circle class="cls-2" cx="36.94" cy="36.94" r="32.5"/><circle class="cls-1" cx="36.94" cy="36.94" r="27.77"/><path class="cls-3" d="M184.56,230.14l15.79,13.29-15.79,13.31-3.63-3.7,11.6-9.56-11.6-9.63Z" transform="translate(-165.9 -206.51)"/><path class="cls-3" d="M198.35,256.74v-4.52h26.4v4.52Z" transform="translate(-165.9 -206.51)"/><path class="cls-4" d="M171,292.74v2.71h1.89a1.41,1.41,0,0,1,.95.25.89.89,0,0,1,.29.68.85.85,0,0,1-.29.66,1.4,1.4,0,0,1-.95.26h-4a1.4,1.4,0,0,1-.95-.26.87.87,0,0,1-.29-.67.88.88,0,0,1,.29-.67,1.42,1.42,0,0,1,.95-.25h.29v-7.24h-.29a1.4,1.4,0,0,1-.95-.26.92.92,0,0,1,0-1.34,1.4,1.4,0,0,1,.95-.26h8.71v2.83a1.41,1.41,0,0,1-.26.94.94.94,0,0,1-1.34,0,1.38,1.38,0,0,1-.25-.94v-1H171v2.68h1.62a2,2,0,0,1,.14-.93.89.89,0,0,1,.79-.44.84.84,0,0,1,.66.28,1.43,1.43,0,0,1,.26,1v2.12a1.43,1.43,0,0,1-.26,1,.85.85,0,0,1-.67.28.87.87,0,0,1-.78-.44,2,2,0,0,1-.14-.94Z" transform="translate(-165.9 -206.51)"/><path class="cls-4" d="M182.9,289.1v1.16a10.44,10.44,0,0,1,1.84-1.12,3.24,3.24,0,0,1,1.26-.28,2.79,2.79,0,0,1,1.75.67,1.23,1.23,0,0,1,.57.92.94.94,0,0,1-.93.95,1.15,1.15,0,0,1-.73-.35,1,1,0,0,0-.67-.34,2.48,2.48,0,0,0-1.16.49,17.13,17.13,0,0,0-1.93,1.46v2.79h2.64a1.42,1.42,0,0,1,1,.25.88.88,0,0,1,.28.68.84.84,0,0,1-.28.66,1.42,1.42,0,0,1-1,.26H180A1.42,1.42,0,0,1,179,297a.87.87,0,0,1-.29-.67.88.88,0,0,1,.29-.67,1.42,1.42,0,0,1,.95-.25h1.1V291h-.67a1.42,1.42,0,0,1-.95-.25.87.87,0,0,1-.28-.68.84.84,0,0,1,.28-.66,1.42,1.42,0,0,1,.95-.26Z" transform="translate(-165.9 -206.51)"/><path class="cls-4" d="M199.16,293.35a4.07,4.07,0,0,1-.59,2.07,4.12,4.12,0,0,1-1.76,1.58,5.34,5.34,0,0,1-4.86,0,4.24,4.24,0,0,1-1.76-1.58,4,4,0,0,1-.6-2.09,4.45,4.45,0,0,1,2.38-3.87,5,5,0,0,1,2.4-.61,5.06,5.06,0,0,1,2.43.63,4.36,4.36,0,0,1,1.77,1.68A4.49,4.49,0,0,1,199.16,293.35Zm-1.85,0a2.46,2.46,0,0,0-.64-1.64,3.13,3.13,0,0,0-4.39-.21,2.52,2.52,0,0,0-.84,1.86,2.15,2.15,0,0,0,.85,1.62,3.24,3.24,0,0,0,4.17,0A2.15,2.15,0,0,0,197.31,293.36Z" transform="translate(-165.9 -206.51)"/><path class="cls-4" d="M203.55,289.1v.63a3.42,3.42,0,0,1,1.12-.65,3.81,3.81,0,0,1,1.32-.22,3.39,3.39,0,0,1,2.6,1,3,3,0,0,1,.76,2.13v3.44a1.23,1.23,0,0,1,.86.25.88.88,0,0,1,.28.68.84.84,0,0,1-.28.66,1.42,1.42,0,0,1-1,.26h-1.67a1.4,1.4,0,0,1-1-.26.87.87,0,0,1-.29-.67.91.91,0,0,1,.28-.67,1.27,1.27,0,0,1,.87-.25V292a1.11,1.11,0,0,0-.33-.89,1.91,1.91,0,0,0-1.27-.36,2.34,2.34,0,0,0-1.12.25,4.94,4.94,0,0,0-1.23,1.05v3.44a2,2,0,0,1,.93.13.89.89,0,0,1,.44.8.85.85,0,0,1-.29.66,1.4,1.4,0,0,1-.95.26h-2.1a1.4,1.4,0,0,1-1-.26.87.87,0,0,1-.29-.67.9.9,0,0,1,.44-.79,2,2,0,0,1,.93-.13V291a1.21,1.21,0,0,1-.87-.26.93.93,0,0,1,0-1.33,1.43,1.43,0,0,1,1-.26Z" transform="translate(-165.9 -206.51)"/><path class="cls-4" d="M216,291v3.71a1,1,0,0,0,.25.79,2.24,2.24,0,0,0,1.35.3,5.8,5.8,0,0,0,2.62-.61,1.62,1.62,0,0,1,.72-.23.83.83,0,0,1,.62.27.9.9,0,0,1,.27.66.83.83,0,0,1-.29.62,4.3,4.3,0,0,1-1.74.78,8.51,8.51,0,0,1-2.2.35,3.87,3.87,0,0,1-2.59-.74,2.34,2.34,0,0,1-.86-1.83V291h-.67a1.42,1.42,0,0,1-1-.25.87.87,0,0,1-.28-.68.84.84,0,0,1,.28-.66,1.42,1.42,0,0,1,1-.26h.67v-1.67a1.42,1.42,0,0,1,.26-.95.86.86,0,0,1,.67-.28.84.84,0,0,1,.66.28,1.37,1.37,0,0,1,.26.95v1.67h3.42a1.4,1.4,0,0,1,.95.26.92.92,0,0,1,0,1.34,1.41,1.41,0,0,1-.95.25Z" transform="translate(-165.9 -206.51)"/><path class="cls-4" d="M232.21,294.14h-7.59a2.4,2.4,0,0,0,1,1.16,3.78,3.78,0,0,0,2,.45,11.37,11.37,0,0,0,2.73-.45,4.68,4.68,0,0,1,1-.18.85.85,0,0,1,.62.26.92.92,0,0,1,.25.66.83.83,0,0,1-.27.62,4.38,4.38,0,0,1-1.76.63,12.81,12.81,0,0,1-2.69.3,5,5,0,0,1-3.55-1.25,4.06,4.06,0,0,1-1.33-3.09,4,4,0,0,1,1.44-3.17,5,5,0,0,1,3.32-1.22,5.2,5.2,0,0,1,2.07.4,4.56,4.56,0,0,1,1.4.85,5.46,5.46,0,0,1,1.07,1.66,3.88,3.88,0,0,1,.29,1.58Zm-2.05-1.85a2.85,2.85,0,0,0-1.11-1.19,3.22,3.22,0,0,0-1.63-.39,3.19,3.19,0,0,0-1.62.39,2.94,2.94,0,0,0-1.12,1.19Z" transform="translate(-165.9 -206.51)"/><path class="cls-4" d="M236.77,289.1v.63a3.38,3.38,0,0,1,1.11-.65,3.81,3.81,0,0,1,1.32-.22,3.39,3.39,0,0,1,2.6,1,3,3,0,0,1,.76,2.13v3.44a1.27,1.27,0,0,1,.87.25.92.92,0,0,1,.28.68.85.85,0,0,1-.29.66,1.4,1.4,0,0,1-.95.26H240.8a1.42,1.42,0,0,1-1-.26.87.87,0,0,1-.29-.67.91.91,0,0,1,.28-.67,1.27,1.27,0,0,1,.87-.25V292a1.14,1.14,0,0,0-.32-.89,2,2,0,0,0-1.28-.36A2.37,2.37,0,0,0,238,291a4.76,4.76,0,0,0-1.22,1.05v3.44a2,2,0,0,1,.92.13.89.89,0,0,1,.44.8.84.84,0,0,1-.28.66,1.43,1.43,0,0,1-1,.26h-2.1a1.42,1.42,0,0,1-.95-.26.86.86,0,0,1-.28-.67.89.89,0,0,1,.43-.79,2,2,0,0,1,.93-.13V291a1.22,1.22,0,0,1-.87-.26.88.88,0,0,1-.28-.67.85.85,0,0,1,.29-.66,1.4,1.4,0,0,1,.95-.26Z" transform="translate(-165.9 -206.51)"/><path class="cls-4" d="M254,285.59v9.86h.31a1.42,1.42,0,0,1,.95.25.89.89,0,0,1,.29.68.85.85,0,0,1-.29.66,1.4,1.4,0,0,1-.95.26h-2.16v-.45a6.16,6.16,0,0,1-1.33.56,5.6,5.6,0,0,1-1.43.18,4.68,4.68,0,0,1-3.35-1.2,3.94,3.94,0,0,1-1.27-3,4.33,4.33,0,0,1,1.33-3.2,4.44,4.44,0,0,1,3.26-1.33,4.52,4.52,0,0,1,1.41.22,6,6,0,0,1,1.38.66v-2.3h-.32a1.42,1.42,0,0,1-.95-.25.92.92,0,0,1,0-1.34,1.42,1.42,0,0,1,.95-.26Zm-1.85,7.85a2.62,2.62,0,0,0-.81-1.94,2.83,2.83,0,0,0-3.92,0,2.59,2.59,0,0,0-.81,1.92,2.17,2.17,0,0,0,.73,1.67,2.91,2.91,0,0,0,2,.66,2.94,2.94,0,0,0,2-.66A2.14,2.14,0,0,0,252.11,293.44Z" transform="translate(-165.9 -206.51)"/><path class="cls-4" d="M267.57,295.64v-6.48a1.21,1.21,0,0,1-.78-.24.83.83,0,0,1,0-1.2,1.27,1.27,0,0,1,.85-.23h3.47a4.34,4.34,0,0,1,1.58.3,3.58,3.58,0,0,1,1.24.76,5.42,5.42,0,0,1,.74.95,5.79,5.79,0,0,1,.58,1.21,5.07,5.07,0,0,1,.19,1.46V293a4.62,4.62,0,0,1-.36,1.87,3.58,3.58,0,0,1-.93,1.32,4.71,4.71,0,0,1-1.09.76,5,5,0,0,1-2.09.38h-3.33a1.27,1.27,0,0,1-.85-.23.8.8,0,0,1-.26-.61.76.76,0,0,1,.26-.59A1,1,0,0,1,267.57,295.64Zm1.66,0H271a3.1,3.1,0,0,0,1.49-.28,2.63,2.63,0,0,0,1-.95,3,3,0,0,0,.33-1.49v-.78a3,3,0,0,0-.3-1.37,2.94,2.94,0,0,0-1.05-1.27,2.86,2.86,0,0,0-1.47-.34h-1.74Z" transform="translate(-165.9 -206.51)"/><path class="cls-4" d="M285.35,294.47h-6.8a2.1,2.1,0,0,0,.92,1,3.48,3.48,0,0,0,1.78.4,10.54,10.54,0,0,0,2.45-.4,4,4,0,0,1,.87-.16.77.77,0,0,1,.56.23.84.84,0,0,1,.23.59.7.7,0,0,1-.25.55,3.82,3.82,0,0,1-1.57.57,11.48,11.48,0,0,1-2.41.27,4.43,4.43,0,0,1-3.18-1.12,3.63,3.63,0,0,1-1.19-2.76,3.56,3.56,0,0,1,1.29-2.85,4.45,4.45,0,0,1,3-1.09,4.66,4.66,0,0,1,1.85.36,3.9,3.9,0,0,1,1.26.76,4.73,4.73,0,0,1,1,1.48,3.71,3.71,0,0,1,.26,1.42Zm-1.84-1.66a2.55,2.55,0,0,0-1-1.06,3.22,3.22,0,0,0-2.92,0,2.63,2.63,0,0,0-1,1.06Z" transform="translate(-165.9 -206.51)"/><path class="cls-4" d="M291.12,295.28l1.79-3.67a1.88,1.88,0,0,1-.85-.11.81.81,0,0,1-.41-.72.76.76,0,0,1,.26-.59,1.22,1.22,0,0,1,.85-.23H295a1.22,1.22,0,0,1,.85.23.81.81,0,0,1,0,1.19,1.22,1.22,0,0,1-.85.23h-.27L292,297.3h-1.73l-2.77-5.69h-.23a1.25,1.25,0,0,1-.86-.23.83.83,0,0,1,0-1.19,1.25,1.25,0,0,1,.86-.23h2.22a1.19,1.19,0,0,1,.84.23.82.82,0,0,1-.13,1.3,2,2,0,0,1-.86.12Z" transform="translate(-165.9 -206.51)"/><path class="cls-4" d="M305.18,294.47h-6.8a2.15,2.15,0,0,0,.92,1,3.48,3.48,0,0,0,1.78.4,10.54,10.54,0,0,0,2.45-.4,4,4,0,0,1,.88-.16.75.75,0,0,1,.55.23.84.84,0,0,1,.23.59.72.72,0,0,1-.24.55,3.88,3.88,0,0,1-1.58.57,11.41,11.41,0,0,1-2.41.27,4.46,4.46,0,0,1-3.18-1.12,3.66,3.66,0,0,1-1.19-2.76,3.56,3.56,0,0,1,1.29-2.85,4.45,4.45,0,0,1,3-1.09,4.66,4.66,0,0,1,1.85.36,3.8,3.8,0,0,1,1.26.76,4.73,4.73,0,0,1,1,1.48,3.53,3.53,0,0,1,.26,1.42Zm-1.83-1.66a2.63,2.63,0,0,0-1-1.06,3.22,3.22,0,0,0-2.92,0,2.63,2.63,0,0,0-1,1.06Z" transform="translate(-165.9 -206.51)"/><path class="cls-4" d="M311.77,286.81v8.83h2a1.29,1.29,0,0,1,.85.23.76.76,0,0,1,.25.6.79.79,0,0,1-.25.6,1.29,1.29,0,0,1-.85.23h-5.64a1.27,1.27,0,0,1-.85-.23.8.8,0,0,1-.26-.61.76.76,0,0,1,.26-.59,1.27,1.27,0,0,1,.85-.23h2v-7.17h-1.33a1.27,1.27,0,0,1-.85-.23.73.73,0,0,1-.26-.6.77.77,0,0,1,.25-.6,1.3,1.3,0,0,1,.86-.23Z" transform="translate(-165.9 -206.51)"/><path class="cls-4" d="M325.16,293.76a3.59,3.59,0,0,1-.53,1.85,3.66,3.66,0,0,1-1.58,1.42,4.77,4.77,0,0,1-4.35,0,3.77,3.77,0,0,1-1.58-1.42,3.55,3.55,0,0,1-.54-1.87,4,4,0,0,1,.55-1.95,3.9,3.9,0,0,1,1.58-1.51,4.5,4.5,0,0,1,2.16-.55,4.55,4.55,0,0,1,2.17.56,3.84,3.84,0,0,1,1.58,1.51A3.94,3.94,0,0,1,325.16,293.76Zm-1.66,0a2.23,2.23,0,0,0-.57-1.47,2.81,2.81,0,0,0-3.94-.18,2.23,2.23,0,0,0-.75,1.66,1.93,1.93,0,0,0,.76,1.45,2.91,2.91,0,0,0,3.74,0A1.93,1.93,0,0,0,323.5,293.77Z" transform="translate(-165.9 -206.51)"/><path class="cls-4" d="M328.71,296.38v2.72h1a1.27,1.27,0,0,1,.85.23.76.76,0,0,1,.25.6.79.79,0,0,1-.25.6,1.27,1.27,0,0,1-.85.23h-2.94a1.27,1.27,0,0,1-.85-.23.79.79,0,0,1-.26-.6.76.76,0,0,1,.26-.6,1.31,1.31,0,0,1,.85-.23h.29v-7.49h-.29a1.22,1.22,0,0,1-.85-.23.81.81,0,0,1,0-1.19,1.22,1.22,0,0,1,.85-.23h1.94v.56a4.67,4.67,0,0,1,1.21-.59,4.2,4.2,0,0,1,1.27-.19,4,4,0,0,1,2.9,1.15,3.6,3.6,0,0,1,1.19,2.64,3.27,3.27,0,0,1-1.41,2.71,4.33,4.33,0,0,1-2.66.89,4.14,4.14,0,0,1-1.26-.19A5.05,5.05,0,0,1,328.71,296.38Zm4.92-2.84a2,2,0,0,0-.28-.89,2.23,2.23,0,0,0-.84-.89,2.46,2.46,0,0,0-1.34-.36,2.35,2.35,0,0,0-2,.93,2,2,0,0,0-.5,1.22,1.74,1.74,0,0,0,.71,1.29,2.52,2.52,0,0,0,1.75.63,2.56,2.56,0,0,0,1.75-.62A1.78,1.78,0,0,0,333.63,293.54Z" transform="translate(-165.9 -206.51)"/><path class="cls-4" d="M344.84,294.47h-6.79a2.13,2.13,0,0,0,.91,1,3.52,3.52,0,0,0,1.79.4,10.62,10.62,0,0,0,2.45-.4,4,4,0,0,1,.87-.16.77.77,0,0,1,.56.23.83.83,0,0,1,.22.59.72.72,0,0,1-.24.55,3.88,3.88,0,0,1-1.58.57,11.32,11.32,0,0,1-2.4.27,4.47,4.47,0,0,1-3.19-1.12,3.66,3.66,0,0,1-1.19-2.76,3.56,3.56,0,0,1,1.29-2.85,4.45,4.45,0,0,1,3-1.09,4.71,4.71,0,0,1,1.86.36,3.84,3.84,0,0,1,1.25.76,4.94,4.94,0,0,1,1,1.48,3.71,3.71,0,0,1,.25,1.42ZM343,292.81a2.55,2.55,0,0,0-1-1.06,2.86,2.86,0,0,0-1.47-.35,2.81,2.81,0,0,0-1.45.35,2.65,2.65,0,0,0-1,1.06Z" transform="translate(-165.9 -206.51)"/><path class="cls-4" d="M350.26,290v1a9.18,9.18,0,0,1,1.64-1,2.9,2.9,0,0,1,1.13-.25,2.52,2.52,0,0,1,1.57.6,1.11,1.11,0,0,1,.52.82.82.82,0,0,1-.25.6.78.78,0,0,1-.59.25,1,1,0,0,1-.65-.31,1,1,0,0,0-.61-.3,2.27,2.27,0,0,0-1,.43,16.81,16.81,0,0,0-1.72,1.31v2.5h2.36a1.27,1.27,0,0,1,.85.23.76.76,0,0,1,.26.6.79.79,0,0,1-.26.6,1.27,1.27,0,0,1-.85.23h-5a1.3,1.3,0,0,1-.86-.23.79.79,0,0,1-.25-.61.75.75,0,0,1,.25-.59,1.3,1.3,0,0,1,.86-.23h1v-4H348a1.22,1.22,0,0,1-.85-.23.83.83,0,0,1,0-1.19A1.22,1.22,0,0,1,348,290Z" transform="translate(-165.9 -206.51)"/><path class="cls-4" d="M272.51,225.73a14.63,14.63,0,0,1-4,10.54,12.51,12.51,0,0,1-9.31,4.21,12.37,12.37,0,0,1-8.59-3.5,15.78,15.78,0,0,1,0-22.53,12.38,12.38,0,0,1,8.59-3.51,12.52,12.52,0,0,1,9.31,4.22A14.65,14.65,0,0,1,272.51,225.73Zm-4.76,0a10.19,10.19,0,0,0-2.62-7.19,7.64,7.64,0,0,0-11.9,0,11.07,11.07,0,0,0,0,14.33,7.88,7.88,0,0,0,5.94,2.85,8,8,0,0,0,6-2.83A10.14,10.14,0,0,0,267.75,225.73Z" transform="translate(-165.9 -206.51)"/><path class="cls-4" d="M280.28,218.72v1.34a8,8,0,0,1,2.1-1.56,5.13,5.13,0,0,1,2.17-.43,4.58,4.58,0,0,1,2.07.51,7.33,7.33,0,0,1,2,1.53,9.11,9.11,0,0,1,2.5-1.52,7,7,0,0,1,2.58-.5,6.34,6.34,0,0,1,4.3,1.42,6.09,6.09,0,0,1,2.18,4.87V235a3.11,3.11,0,0,1,2.2.67,2.25,2.25,0,0,1,.72,1.72,2.21,2.21,0,0,1-.72,1.71,3.57,3.57,0,0,1-2.43.66h-4.53v-15a2.2,2.2,0,0,0-.39-1.5,1.6,1.6,0,0,0-1.21-.42,2.7,2.7,0,0,0-1.46.42,10,10,0,0,0-2.09,2.18V235a3.1,3.1,0,0,1,2.2.67,2.25,2.25,0,0,1,.72,1.72,2.21,2.21,0,0,1-.72,1.71,3.55,3.55,0,0,1-2.43.66H285.5v-15a2.14,2.14,0,0,0-.4-1.49,1.59,1.59,0,0,0-1.22-.43,3,3,0,0,0-1.65.52,8.51,8.51,0,0,0-2,2.08V235a3.19,3.19,0,0,1,2.22.67,2.22,2.22,0,0,1,.73,1.72,2.19,2.19,0,0,1-.73,1.71,3.65,3.65,0,0,1-2.45.66h-4.29a3.63,3.63,0,0,1-2.45-.66,2.4,2.4,0,0,1,0-3.44,3.2,3.2,0,0,1,2.22-.66V223.47a3.15,3.15,0,0,1-2.22-.67,2.25,2.25,0,0,1-.72-1.72,2.18,2.18,0,0,1,.73-1.7,3.63,3.63,0,0,1,2.45-.66Z" transform="translate(-165.9 -206.51)"/><path class="cls-4" d="M320.38,239.79v-1.12a15.3,15.3,0,0,1-3.95,1.43,18.1,18.1,0,0,1-3.92.48,9.31,9.31,0,0,1-6.22-2,5.88,5.88,0,0,1-2.39-4.49q0-3,3.05-5.56t8.44-2.57a31.32,31.32,0,0,1,5,.47v-1.14a2.08,2.08,0,0,0-.92-1.74,6.31,6.31,0,0,0-3.49-.67,24.2,24.2,0,0,0-5.48.83,8.91,8.91,0,0,1-1.95.3,2.14,2.14,0,0,1-1.61-.68,2.42,2.42,0,0,1-.66-1.75,2.32,2.32,0,0,1,.23-1.05,1.83,1.83,0,0,1,.65-.7,7.67,7.67,0,0,1,1.74-.64,31.16,31.16,0,0,1,3.6-.78,21.84,21.84,0,0,1,3.32-.29,10.93,10.93,0,0,1,6.88,1.92,6.28,6.28,0,0,1,2.45,5.23V235H326a3.65,3.65,0,0,1,2.45.66,2.25,2.25,0,0,1,.73,1.73,2.22,2.22,0,0,1-.73,1.71,3.65,3.65,0,0,1-2.45.66Zm0-8.52a27.76,27.76,0,0,0-5.27-.56,8.71,8.71,0,0,0-5,1.42c-.86.6-1.3,1.21-1.3,1.83a1.25,1.25,0,0,0,.63,1.09,5.71,5.71,0,0,0,3.18.77,13.29,13.29,0,0,0,3.89-.67,14.21,14.21,0,0,0,3.86-1.84Z" transform="translate(-165.9 -206.51)"/><path class="cls-4" d="M343.58,218.72v3a26,26,0,0,1,4.73-2.88,8.43,8.43,0,0,1,3.23-.72,7.16,7.16,0,0,1,4.5,1.72,3.15,3.15,0,0,1,1.49,2.36,2.35,2.35,0,0,1-.71,1.73,2.29,2.29,0,0,1-1.7.71,2.84,2.84,0,0,1-1.86-.88,2.76,2.76,0,0,0-1.74-.88,6.57,6.57,0,0,0-3,1.25,48.45,48.45,0,0,0-5,3.76V235h6.78a3.65,3.65,0,0,1,2.45.66,2.25,2.25,0,0,1,.73,1.73,2.22,2.22,0,0,1-.73,1.71,3.65,3.65,0,0,1-2.45.66H336a3.61,3.61,0,0,1-2.45-.66,2.22,2.22,0,0,1-.73-1.73,2.19,2.19,0,0,1,.73-1.71A3.61,3.61,0,0,1,336,235h2.83V223.47h-1.72a3.63,3.63,0,0,1-2.45-.66,2.38,2.38,0,0,1,0-3.43,3.63,3.63,0,0,1,2.45-.66Z" transform="translate(-165.9 -206.51)"/><path class="cls-4" d="M248.51,270.4V251.79a3.3,3.3,0,0,1-2.22-.69,2.39,2.39,0,0,1,0-3.43,3.63,3.63,0,0,1,2.45-.66l9.95,0a12.53,12.53,0,0,1,4.54.86,10.31,10.31,0,0,1,3.56,2.18,15.29,15.29,0,0,1,2.12,2.74,15,15,0,0,1,1.66,3.46,13.73,13.73,0,0,1,.56,4.2v2.27a13.26,13.26,0,0,1-1,5.35,10.84,10.84,0,0,1-2.68,3.8,13.53,13.53,0,0,1-3.12,2.17,14.16,14.16,0,0,1-6,1.09h-9.56a3.63,3.63,0,0,1-2.45-.66,2.39,2.39,0,0,1,0-3.44A3.06,3.06,0,0,1,248.51,270.4Zm4.76,0h5.06a8.91,8.91,0,0,0,4.27-.81,7.42,7.42,0,0,0,2.83-2.72,8.41,8.41,0,0,0,.95-4.27v-2.25a9.23,9.23,0,0,0-3.88-7.58,8.34,8.34,0,0,0-4.22-1h-5Z" transform="translate(-165.9 -206.51)"/><path class="cls-4" d="M290,254.08V270.4h5.71a3.65,3.65,0,0,1,2.45.66,2.22,2.22,0,0,1,.73,1.73,2.18,2.18,0,0,1-.73,1.7,3.65,3.65,0,0,1-2.45.66H279.52a3.63,3.63,0,0,1-2.45-.66,2.38,2.38,0,0,1,0-3.43,3.63,3.63,0,0,1,2.45-.66h5.7V258.84H281.4a3.63,3.63,0,0,1-2.44-.66,2.19,2.19,0,0,1-.74-1.73,2.17,2.17,0,0,1,.73-1.7,3.61,3.61,0,0,1,2.45-.67Zm-.93-7.58-5.22,4.24a2.3,2.3,0,0,1-1.32.63,1.53,1.53,0,0,1-1.1-.44,1.49,1.49,0,0,1-.46-1.09,2,2,0,0,1,.93-1.49l5.25-4.24a2.3,2.3,0,0,1,1.32-.63,1.53,1.53,0,0,1,1.1.44A1.44,1.44,0,0,1,290,245,2,2,0,0,1,289.05,246.5Z" transform="translate(-165.9 -206.51)"/><path class="cls-4" d="M320.38,275.15V274a15.3,15.3,0,0,1-3.95,1.43,18,18,0,0,1-3.92.47,9.26,9.26,0,0,1-6.22-2,5.86,5.86,0,0,1-2.39-4.49c0-2,1-3.85,3.05-5.55s4.85-2.57,8.44-2.57a31.32,31.32,0,0,1,5,.47v-1.14a2.08,2.08,0,0,0-.92-1.74,6.31,6.31,0,0,0-3.49-.67,23.65,23.65,0,0,0-5.48.83,8.91,8.91,0,0,1-1.95.3,2.18,2.18,0,0,1-1.61-.68,2.42,2.42,0,0,1-.66-1.75,2.29,2.29,0,0,1,.23-1.05,1.93,1.93,0,0,1,.65-.71,7.81,7.81,0,0,1,1.74-.63,31.16,31.16,0,0,1,3.6-.78,20.63,20.63,0,0,1,3.32-.29,11,11,0,0,1,6.88,1.91,6.3,6.3,0,0,1,2.45,5.24v9.79H326a3.65,3.65,0,0,1,2.45.66,2.25,2.25,0,0,1,.73,1.73,2.21,2.21,0,0,1-.73,1.7,3.65,3.65,0,0,1-2.45.66Zm0-8.51a27.76,27.76,0,0,0-5.27-.56,8.64,8.64,0,0,0-5,1.42c-.86.6-1.3,1.21-1.3,1.83a1.26,1.26,0,0,0,.63,1.09,5.71,5.71,0,0,0,3.18.77,13.34,13.34,0,0,0,3.89-.68,14.19,14.19,0,0,0,3.86-1.83Z" transform="translate(-165.9 -206.51)"/><path class="cls-4" d="M342,270.4h8.35a3,3,0,0,1,.73-2,2.23,2.23,0,0,1,1.64-.66,2.26,2.26,0,0,1,1.73.73,3.65,3.65,0,0,1,.66,2.45v4.22h-20.7v-3.94L347,258.84h-7.29v.47a3.57,3.57,0,0,1-.66,2.42,2.41,2.41,0,0,1-3.46,0,3.57,3.57,0,0,1-.66-2.42l0-5.23h19.68V258Z" transform="translate(-165.9 -206.51)"/></svg>